<?xml version="1.0" encoding="UTF-8"?>
<svg id="Layer_1" data-name="Layer 1" xmlns="http://www.w3.org/2000/svg" xmlns:xlink="http://www.w3.org/1999/xlink" viewBox="0 250 1000 400">
  <defs>
    <style>
      .cls-1 {
        fill: #fff;
      }

      .cls-2 {
        fill: url(#linear-gradient);
      }
    </style>
    <linearGradient id="linear-gradient" x1="95.27" y1="-663.39" x2="277.08" y2="-524.41" gradientTransform="translate(0 1100)" gradientUnits="userSpaceOnUse">
      <stop offset=".1" stop-color="#fcd40a"/>
      <stop offset=".69" stop-color="#efa315"/>
    </linearGradient>
  </defs>
  <path class="cls-1" d="m382.06,568.27c-9.46,0-17.95-1.71-25.48-5.13-7.52-3.42-13.45-8.43-17.78-15.04-4.33-6.61-6.5-14.65-6.5-24.11s2.17-17.35,6.5-24.02c4.33-6.67,10.26-11.77,17.78-15.3,7.52-3.53,16.01-5.3,25.48-5.3s17.89,1.77,25.31,5.3c7.41,3.54,13.25,8.64,17.52,15.3,4.27,6.67,6.41,14.68,6.41,24.02s-2.14,17.5-6.41,24.11c-4.27,6.61-10.12,11.62-17.52,15.04-7.41,3.42-15.85,5.13-25.31,5.13Zm0-15.56c5.47,0,10.48-1.08,15.04-3.25,4.56-2.17,8.18-5.41,10.86-9.75,2.68-4.33,4.02-9.57,4.02-15.73s-1.34-11.4-4.02-15.73-6.27-7.67-10.77-10c-4.51-2.34-9.55-3.5-15.13-3.5s-10.66,1.14-15.22,3.42c-4.56,2.28-8.24,5.59-11.03,9.92s-4.19,9.63-4.19,15.9,1.37,11.4,4.1,15.73c2.73,4.33,6.41,7.58,11.03,9.75,4.62,2.17,9.72,3.25,15.3,3.25Z"/>
  <path class="cls-1" d="m437.97,481.23h18.98v85.15h-18.98v-85.15Zm49.76,16.24c-6.16,0-11.43,1.31-15.82,3.93-4.39,2.63-7.89,5.81-10.52,9.57-2.63,3.76-4.45,7.41-5.47,10.94l-.17-9.57c.12-1.26.52-3.17,1.2-5.73.68-2.57,1.74-5.39,3.16-8.47,1.42-3.07,3.36-6.07,5.81-8.97,2.45-2.91,5.47-5.27,9.06-7.1,3.59-1.82,7.84-2.74,12.74-2.74v18.12Z"/>
  <path class="cls-1" d="m656.22,538.35h18.29c-.91,5.81-3.16,10.97-6.75,15.47-3.59,4.5-8.47,8.03-14.62,10.6-6.15,2.57-13.51,3.85-22.06,3.85-9.69,0-18.35-1.79-25.99-5.38-7.64-3.59-13.62-8.69-17.95-15.3-4.33-6.61-6.5-14.48-6.5-23.6s2.11-16.87,6.33-23.59c4.22-6.73,10.06-11.91,17.52-15.56,7.46-3.65,16.1-5.47,25.91-5.47s18.61,1.8,25.39,5.39c6.78,3.59,11.83,8.95,15.13,16.07,3.31,7.13,4.67,16.11,4.1,26.93h-75.06c.57,4.79,2.14,9.09,4.7,12.91,2.57,3.82,6.07,6.78,10.52,8.89s9.63,3.16,15.56,3.16c6.61,0,12.16-1.31,16.67-3.93,4.5-2.62,7.44-6.1,8.81-10.43Zm-26.33-43.6c-7.75,0-14.14,1.91-19.15,5.72-5.02,3.82-8.26,8.7-9.75,14.62h54.89c-.46-6.38-3.02-11.37-7.7-14.96-4.68-3.59-10.77-5.38-18.29-5.38Z"/>
  <path class="cls-1" d="m683.39,481.23h18.98v85.15h-18.98v-85.15Zm54.89-1.88c4.9,0,9.43.68,13.59,2.05,4.16,1.37,7.75,3.45,10.77,6.24,3.02,2.8,5.36,6.24,7.01,10.35,1.65,4.1,2.48,8.95,2.48,14.54v53.86h-18.98v-50.1c0-6.95-1.68-12.11-5.04-15.48-3.36-3.36-8.64-5.04-15.82-5.04-5.47,0-10.46,1.17-14.96,3.5-4.51,2.34-8.18,5.36-11.03,9.06-2.85,3.71-4.51,7.78-4.96,12.23l-.17-9.24c.57-4.22,1.82-8.23,3.76-12.05,1.94-3.82,4.51-7.24,7.7-10.26s6.95-5.39,11.29-7.1c4.33-1.71,9.12-2.57,14.36-2.57Z"/>
  <path class="cls-1" d="m805.13,445.16v18.29h-22.74v-18.29h22.74Zm-21.03,36.08h19.15v85.15h-19.15v-85.15Z"/>
  <path class="cls-1" d="m887.4,538.35h18.29c-.91,5.81-3.16,10.97-6.75,15.47-3.59,4.5-8.47,8.03-14.62,10.6-6.15,2.57-13.51,3.85-22.06,3.85-9.69,0-18.35-1.79-25.99-5.38-7.64-3.59-13.62-8.69-17.95-15.3-4.33-6.61-6.5-14.48-6.5-23.6s2.11-16.87,6.33-23.59c4.22-6.73,10.06-11.91,17.52-15.56,7.46-3.65,16.1-5.47,25.91-5.47s18.61,1.8,25.39,5.39c6.78,3.59,11.83,8.95,15.13,16.07,3.31,7.13,4.67,16.11,4.1,26.93h-75.06c.57,4.79,2.14,9.09,4.7,12.91,2.57,3.82,6.07,6.78,10.52,8.89s9.63,3.16,15.56,3.16c6.61,0,12.16-1.31,16.67-3.93,4.5-2.62,7.44-6.1,8.81-10.43Zm-26.33-43.6c-7.75,0-14.14,1.91-19.15,5.72-5.02,3.82-8.26,8.7-9.75,14.62h54.89c-.46-6.38-3.02-11.37-7.7-14.96-4.68-3.59-10.77-5.38-18.29-5.38Z"/>
  <path class="cls-1" d="m315.99,478.15c0-3.99.65-7.08,1.99-9.23,1.3-2.16,3.13-3.62,5.45-4.43,2.36-.81,5.09-1.14,8.3-1.02h.37l10.25-16.2v-.24h-14.03c-6.51,0-12.12,1.02-16.84,3.09-4.72,2.03-8.34,5.25-10.86,9.56-2.52,4.35-3.74,9.93-3.74,16.76v5.82h-7.28l-9.76,15.38h17.05v68.75h19.12v-68.75h15.76v-15.38h-15.76v-4.11Z"/>
  <path class="cls-2" d="m187.95,453.72l-4.72-4.72h-16.89l-4.72,4.72,13.17,14.55,13.17-14.55Zm-37.07,111.98h47.8v-16.27h-47.8v16.27Zm75.01-73.86c-3.95,3.13-7.66,6.98-11.6,11.04-10.18,10.54-20.71,21.45-37.4,22.91-20.52,1.78-30.36-9.76-39.07-19.95-2.57-3.01-4.99-5.85-7.56-8.15-8.6-7.7-22.7-10.26-32.8-5.94-8.14,3.49-13.86,10.65-14.16,20.24-.31,10.35,4.95,16.47,8.86,19.23,15.55,11.02,31.65-1.95,32.77-3.56l-9.93-11.44c-2.88,2.46-9.24,4.49-12.97,2.06-1.19-.78-3.51-3.07-3.43-5.83.13-4.16,3.17-6,4.79-6.7,4.27-1.84,10.38-.72,16.01,4.04,1.8,1.53,3.75,3.91,6.05,6.6,8.91,10.44,22.08,25.85,47.18,25.85,1.83,0,3.73-.08,5.68-.25,22.75-1.99,36.57-16.31,47.69-27.81,3.54-3.67,6.89-7.14,10-9.6,11.51-9.12,24.64-12,34.55-9.14l9.28-14.79c-13.79-3.98-37.57-1.77-53.93,11.18Zm-78.32,12.85c5.78-8.94,15.81-14.88,27.22-14.88s21.23,5.81,27.04,14.58c2.38-2.27,4.72-4.66,7.08-7.11,1.25-1.3,3.19-3.13,4.56-4.5-8.9-11.67-22.91-19.24-38.68-19.24s-29.31,7.31-38.23,18.65c2.43,2.37,4.96,5.25,7.24,7.95,1.04,1.24,2.63,3.2,3.78,4.55Z"/>
  <path class="cls-1" d="m561.29,568.87c-5.24-1.65-11.34-2.48-18.29-2.48h-24.28c-2.51,0-4.45-.51-5.81-1.54-1.37-1.03-2.05-2.4-2.05-4.1,0-2.85,1.74-4.76,5.22-5.73s8.58-1.57,15.3-1.8c8.32,0,15.64-1.42,21.97-4.27,6.32-2.85,11.28-6.95,14.87-12.31,3.59-5.36,5.39-11.8,5.39-19.32,0-4.45-.91-8.43-2.74-11.97-1.82-3.53-4.3-6.69-7.44-9.49-1.84-1.64-3.85-3.08-5.94-4.42,3.21,1.23,6.71,2.42,10.55,3.57,2.33.7,4.65,1.2,6.96,1.58l9.53-15.06v-.11l-39.84-.17c-2.05-.57-4.19-1.02-6.41-1.37-2.22-.34-4.53-.51-6.92-.51-8.21,0-15.53,1.54-21.97,4.62-6.44,3.08-11.46,7.41-15.05,12.99-3.59,5.59-5.39,12.2-5.39,19.84s1.85,14.19,5.56,19.66c3.7,5.47,8.78,9.63,15.22,12.48,2.01.89,4.12,1.59,6.28,2.2-3.09-.02-6.12.1-9.02.53-4.62.68-8.32,2.17-11.12,4.45-2.79,2.28-4.19,5.7-4.19,10.26,0,2.28.45,4.36,1.37,6.24.91,1.88,2.34,3.53,4.27,4.96s4.53,2.51,7.78,3.25c3.25.74,7.15,1.11,11.71,1.11h23.08c5.93,0,10.54,1.14,13.85,3.42,3.31,2.28,4.96,6.21,4.96,11.8v3.93h19.15v-7.7c0-6.84-1.45-12.22-4.36-16.16-2.9-3.93-6.98-6.73-12.22-8.38Zm-50.44-40.44c-2.05-3.19-3.07-7.06-3.07-11.62s1.02-8.64,3.07-11.89c2.05-3.25,4.87-5.72,8.47-7.44,3.59-1.71,7.61-2.56,12.05-2.56s8.61.85,12.14,2.56c3.53,1.71,6.32,4.22,8.38,7.52,2.05,3.31,3.08,7.24,3.08,11.8s-1.03,8.43-3.08,11.62c-2.05,3.19-4.85,5.65-8.38,7.35-3.54,1.71-7.58,2.57-12.14,2.57s-8.61-.86-12.14-2.57-6.32-4.16-8.38-7.35Z"/>
</svg>